<svg width="40" height="40" viewBox="0 0 40 40" fill="none" xmlns="http://www.w3.org/2000/svg">
<rect width="40" height="40" rx="20" fill="#DA1E28"/>
<path d="M15.755 25.37C15.47 25.37 15.185 25.265 14.96 25.04C14.525 24.605 14.525 23.885 14.96 23.45L23.45 14.96C23.885 14.525 24.605 14.525 25.04 14.96C25.475 15.395 25.475 16.115 25.04 16.55L16.55 25.04C16.34 25.265 16.04 25.37 15.755 25.37Z" fill="white"/>
<path d="M24.245 25.37C23.96 25.37 23.675 25.265 23.45 25.04L14.96 16.55C14.525 16.115 14.525 15.395 14.96 14.96C15.395 14.525 16.115 14.525 16.55 14.96L25.04 23.45C25.475 23.885 25.475 24.605 25.04 25.04C24.815 25.265 24.53 25.37 24.245 25.37Z" fill="white"/>
</svg>
